<svg xmlns="http://www.w3.org/2000/svg" width="900" height="224.75" viewBox="0 0 900 224.75">
  <defs>
    <clipPath id="clip-MT_Logo_SVG_-_Transparent_-_No_padding">
      <rect width="900" height="224.75"/>
    </clipPath>
  </defs>
  <g id="MT_Logo_SVG_-_Transparent_-_No_padding" clip-path="url(#clip-MT_Logo_SVG_-_Transparent_-_No_padding)">
    <g id="Group_14809"  transform="translate(-72 0)">
      <g id="Live_Text" transform="translate(410.118 190.013)">
        <g id="Group_14805" >
          <path id="Path_24213" d="M238.03,109.607V86.252l-9.587,23.355h-5.4L213.449,86.44v23.167h-6.2V76.287H215.8l10.01,24.062,9.775-24.062h8.835v33.32Z" transform="translate(-207.247 -75.582)" fill="#74777f"/>
          <path id="Path_24214" d="M225.152,109.607V76.287H246.02V82.4H231.637v7.613h13.017v5.783H231.637v7.7H246.02v6.11Z" transform="translate(-180.389 -75.582)" fill="#74777f"/>
          <path id="Path_24215" d="M236.08,109.607V76.287h11.937c9.493,0,16.448,6.155,16.448,16.682s-7,16.638-16.495,16.638Zm11.655-6.015c5.453,0,10.01-3.383,10.01-10.623S253.232,82.3,247.783,82.3h-5.215v21.29Z" transform="translate(-163.997 -75.582)" fill="#74777f"/>
          <path id="Path_24216" d="M265.221,82.442v27.165h-6.533V82.442H248.161V76.287h27.588v6.155Z" transform="translate(-145.876 -75.582)" fill="#74777f"/>
          <path id="Path_24217" d="M260.843,109.607V76.287h20.865V82.4h-14.38v7.613h13.018v5.783H267.328v7.7h14.38v6.11Z" transform="translate(-126.853 -75.582)" fill="#74777f"/>
          <path id="Path_24218" d="M270.773,93.392c0-10.62,8.035-17.387,16.965-17.387,9.213,0,13.957,5.64,15.275,11.045l-6.11,1.925c-.8-3.195-3.383-6.72-9.165-6.72-4.983,0-10.245,3.573-10.245,11.138,0,7.1,4.983,11,10.338,11a9.262,9.262,0,0,0,9.355-6.815l6.06,1.83c-1.265,5.125-6.06,11.33-15.415,11.33C278.528,110.738,270.773,104.015,270.773,93.392Z" transform="translate(-111.958 -76.005)" fill="#74777f"/>
          <path id="Path_24219" d="M306.745,109.607V95.792h-14.52v13.815h-6.488V76.287h6.488V89.682h14.52V76.287h6.535v33.32Z" transform="translate(-89.512 -75.582)" fill="#74777f"/>
        </g>
      </g>
      <g id="Logo_Signature" transform="translate(72)">
        <g id="Group_14808">
          <g id="Group_14807">
            <g id="Group_14806">
              <path id="Path_24220" d="M110.843,6.2c0,.995-2.285,5.553-5.215,13.725A102.606,102.606,0,0,0,99.568,55c0,8.658,2.145,20.093,3.947,31.673L98.29,93.705C89.96,83.57,84.74,72.163,84.74,52.565c0-27.74,16.8-46.98,25.443-46.98C110.7,5.585,110.843,5.733,110.843,6.2ZM343.23,84.04a21.684,21.684,0,0,1,1.49,7.36c0,2.618-.992,5.235-2.793,5.235-1.285,0-2.592-1.475-2.592-3.755C339.335,90.42,341.443,86.5,343.23,84.04ZM104.95,95.16c1.322,8.647,2.475,17.155,2.475,23.83,0,15.643-5.22,33.935-14.2,33.788-3.46,0-6.38-3.475-6.528-9.473C86.37,123.735,95.667,107.085,104.95,95.16ZM373.772,59.585A28.188,28.188,0,0,0,368.7,76.213c0,13.71,7.818,26.79,23,26.79,14.692,0,24.98-11.6,24.98-27.775a33.416,33.416,0,0,0-.488-7.3,39.556,39.556,0,0,0,8.653-5.572c1.953-1.473,3.4-2.3,4.575-2.3,1.465,0,2.1,1.152,2.1,3.275v32.01c0,5.215,1.648,7.67,5.715,7.67,3.745,0,6.378-2.623,7.833-5.718,5.4-11.26,13.218-26.27,16.63-31.978C462.528,64,463.193,63,463.66,63c.66,0,1,.495,1,2.6V91.1c0,7.17,3.265,11.905,10.42,11.905,7.523,0,11.257-7.208,17.83-18.293a3.8,3.8,0,0,0,.46-1.61,2.4,2.4,0,0,0-2.592-2.308c-1.48,0-2.3,1.48-7.177,6.853-1,1.023-1.957,2.438-3.77,2.438-.645,0-1.138-.788-1.138-1.787V59.725c0-7.675-3.432-10.768-7.842-10.768-3.58,0-6.528,1.465-9.635,6.037-5.535,8.175-11.25,19.775-14.35,25.618-.34.688-.815,1.66-1.128,1.66-.342,0-.482-.5-.482-1.66V59.725c0-6.025-1.635-10.768-8.013-10.768-6.7,0-10.117,4.578-15.015,7.995a46.6,46.6,0,0,1-7.983,4.9c-3.277-8.312-9.308-12.535-14.373-12.408-5.077.18-8.657,3.29-8.657,8.517a11.221,11.221,0,0,0,7.672,10.753,20.071,20.071,0,0,0,8,1.165,10.736,10.736,0,0,0,2.588-.183,30.681,30.681,0,0,1,.195,5.73c0,8-4.735,15.978-13.54,15.978-9.165,0-14.525-8.808-14.525-18.92,0-7.683,2.27-14.035,6.005-18.43,1.5-1.643,2.628-2.638,2.628-4.138,0-.76-1.127-.955-2.115-.955-6.22,0-13.055,2.78-17.772,5.218a106.651,106.651,0,0,0-19.61,14.053c-2.93-6.538-6.517-12.248-8.335-16.67-.64-1.8-1.112-3.882-2.427-3.882-1.155,0-1.655,1.143-2.46,3.4-2.925,8.65-18.6,33.965-22.025,37.4-.318.467-.8.985-.957.985-.358,0-.543-.163-.543-1.162V59.725c0-7.675-3.092-10.768-7.3-10.768-3.607,0-6.7,1.465-9.635,6.037-5.375,8.175-11.937,20.093-15.022,25.963-.5,1-.993,1.315-1.158,1.315s-.3-.653-.3-1.66V59.725c0-7.675-3.11-10.768-7.36-10.768-3.608,0-7.008,1.335-9.795,6.037-6.835,11.607-18.26,29.4-20.39,32.32a2.623,2.623,0,0,1-.978.98c-.32,0-.512-.323-.512-1.13V59.725c0-7.675-3.1-10.768-7.307-10.768-5.89,0-9.138,5.408-11.275,8.82-2.955,4.732-6.855,11.113-9.948,16.993-2.132,3.935-3.935,7.5-4.595,7.5-.312,0-.312-1.48-.312-4.25V56.163c10.27-11.45,16.642-25.473,16.642-40.815,0-8.83-3.912-13.713-9.928-13.713-11.295,0-19.917,17.64-19.917,38.515V57.125a44.7,44.7,0,0,1-16.18,6.045c-3.092-9.12-9.63-13.858-14.83-13.73-5.045.18-8.653,3.29-8.653,8.517,0,8.645,8.49,12.233,15.982,12.233h2.117a27.758,27.758,0,0,1,.323,5.232c0,8-4.732,15.978-13.525,15.978-9.125,0-14.527-8.808-14.527-18.92,0-7.683,2.267-14.035,6.017-18.43,1.477-1.643,2.635-3.113,2.635-4.138,0-.76-1.158-.955-2.137-.955-6.2,0-19.9,8.352-36.23,24.68-1.437-13.07-3.092-25.805-3.092-38.222A142.084,142.084,0,0,1,116.21,6.38a33.124,33.124,0,0,0,.532-4.4C116.743.673,116.048,0,114.29,0,101.053,0,72,21.07,72,52.565c0,22.343,8.175,33.12,22.35,46.99-8.6,13.878-15.505,30.353-15.505,45.05,0,10.6,2.473,18.613,10.285,18.613,16.323,0,28.553-33.93,28.553-59.083q0-11.25-.94-22.515c6.01-6.393,15.325-15.018,17.6-15.835a38.94,38.94,0,0,0-1.625,10.427c0,13.71,7.842,26.79,23,26.79,14.22,0,24.973-11.6,24.973-27.775,0-2.087-.163-3.912-.313-5.865a42.467,42.467,0,0,0,14.53-5.038v32.79c0,4.233,2.915,5.888,5.7,5.888,3.77,0,5.728-2.623,8.478-8.623,2.31-4.923,8.492-16.178,12.247-22.89,2.953-5.233,4.585-8.638,5.893-8.638.313,0,.665.8.665,2.753v27.92c0,7.52,3.915,9.478,7.3,9.478,3.263,0,5.4-1.788,7.525-4.735,8.5-12.087,17.48-26.435,21.04-32.663.67-1.11,1.475-1.952,2.135-1.952.638,0,.97.35.97,2.44v29.24c0,5.215,1.632,7.67,5.728,7.67,3.737,0,6.167-2.623,7.632-5.718,5.42-11.26,13.4-26.122,16.84-31.978.807-1.3,1.628-2.455,2.105-2.455.68,0,.83.8.83,2.933v27.74c0,7.52,3.917,9.478,7.37,9.478,4.525,0,7.495-3.27,10.427-7.018,5.358-7.045,13.2-19.562,17.935-27.6a70.079,70.079,0,0,1,4.917,9.15c-3.925,4.733-7.847,10.105-7.847,15.815,0,6.04,4.245,9.648,8.648,9.648,7.5,0,14.352-7.208,14.352-17.135A34.872,34.872,0,0,0,353.2,73.963C359.863,67.415,367.875,61.05,373.772,59.585ZM208.108,35.6c0-24.325,4.747-28.063,6.212-28.063,2.613,0,2.93,1.625,2.93,10.953,0,9.6-4.088,22.142-9.143,29.03ZM162.6,59.1a2.119,2.119,0,0,1,2.285-2.278c2.085,0,5.188,2.278,6.992,6.828C165.853,63.653,162.6,62.35,162.6,59.1Zm235.952,0a2.141,2.141,0,0,1,2.27-2.278c2.145,0,5.387,2.278,7.2,6.828-.655,0-1.63.195-2.3.195C401.838,63.848,398.552,61.988,398.552,59.1Z" transform="translate(-72 0)" fill="#c00024"/>
              <path id="Path_24221" d="M273.944,86.18a54.387,54.387,0,0,1-7.322.322c-6.382,0-11.1-2.463-11.1-6.015,0-2.285,1.132-3.612,4.4-3.612C265.156,76.875,269.369,80.488,273.944,86.18ZM306.1,87.813a96.041,96.041,0,0,0,10.755,11.743c-8.65,13.878-15.507,30.353-15.507,45.05,0,10.6,2.47,18.613,10.307,18.613,16.3,0,28.53-33.93,28.53-59.083q0-11.25-.975-22.515c6.05-6.393,15.327-15.018,17.637-15.835a38.508,38.508,0,0,0-1.658,10.427c0,13.71,7.843,26.79,23.023,26.79,14.19,0,24.962-11.6,24.962-27.775,0-2.087-.147-3.912-.332-5.865a41.96,41.96,0,0,0,14.53-5.038v32.79c0,4.233,2.93,5.888,5.69,5.888,3.792,0,5.762-2.623,8.515-8.623,2.275-4.923,8.487-16.178,12.255-22.89,2.925-5.233,4.558-8.638,5.9-8.638.312,0,.615.8.615,2.753v27.92c0,7.52,3.905,9.478,7.34,9.478,3.275,0,5.375-1.788,7.532-4.735,8.468-12.087,17.463-26.435,21.035-32.663.655-1.11,1.49-1.952,2.11-1.952.64,0,.995.35.995,2.44v29.24c0,5.215,1.613,7.67,5.69,7.67,3.765,0,6.2-2.623,7.68-5.718,5.4-11.26,13.39-26.122,16.807-31.978.83-1.3,1.645-2.455,2.147-2.455.635,0,.82.8.82,2.933v27.74c0,7.52,3.878,9.478,7.3,9.478,4.6,0,7.545-3.27,10.455-7.018,5.39-7.045,13.243-19.562,17.962-27.6a71.588,71.588,0,0,1,4.918,9.15c-3.965,4.733-7.838,10.105-7.838,15.815,0,6.04,4.195,9.648,8.635,9.648,7.5,0,14.35-7.208,14.35-17.135a34.839,34.839,0,0,0-2.608-11.905c6.675-6.548,14.682-12.912,20.56-14.377a28.363,28.363,0,0,0-5.058,16.627c0,13.71,7.838,26.79,23.018,26.79,14.693,0,24.938-11.6,24.938-27.775a35.065,35.065,0,0,0-.45-7.3,40.538,40.538,0,0,0,8.652-5.572c1.922-1.473,3.417-2.3,4.54-2.3,1.47,0,2.172,1.152,2.172,3.275v32.01c0,5.215,1.607,7.67,5.68,7.67,3.74,0,6.373-2.623,7.843-5.718,5.36-11.26,13.2-26.27,16.62-31.978C685,64,685.664,63,686.157,63c.665,0,.987.495.987,2.6V91.1c0,7.17,3.238,11.905,10.435,11.905,7.527,0,11.268-7.208,17.813-18.293a3.955,3.955,0,0,0,.462-1.61,2.416,2.416,0,0,0-2.6-2.308c-1.465,0-2.295,1.48-7.177,6.853-.968,1.023-1.963,2.438-3.75,2.438-.675,0-1.142-.788-1.142-1.787V59.725c0-7.675-3.457-10.768-7.863-10.768-3.572,0-6.5,1.465-9.607,6.037-5.567,8.175-11.25,19.775-14.338,25.618-.35.688-.835,1.66-1.17,1.66-.352,0-.48-.5-.48-1.66V59.725c0-6.025-1.625-10.768-8-10.768-6.7,0-10.117,4.578-15,7.995a47.088,47.088,0,0,1-8.028,4.9c-3.232-8.312-9.3-12.535-14.328-12.408-5.1.18-8.65,3.29-8.65,8.517a11.2,11.2,0,0,0,7.635,10.753,20.222,20.222,0,0,0,8.037,1.165,11.245,11.245,0,0,0,2.6-.183,33.569,33.569,0,0,1,.158,5.73c0,8-4.748,15.978-13.575,15.978-9.13,0-14.482-8.808-14.482-18.92,0-7.683,2.265-14.035,6-18.43,1.48-1.643,2.637-2.638,2.637-4.138,0-.76-1.157-.955-2.125-.955-6.18,0-13.06,2.78-17.787,5.218a106.456,106.456,0,0,0-19.575,14.053c-2.94-6.538-6.508-12.248-8.34-16.67-.662-1.8-1.107-3.882-2.455-3.882-1.132,0-1.637,1.143-2.443,3.4-2.945,8.65-18.6,33.965-22.025,37.4-.332.467-.813.985-.987.985-.3,0-.487-.163-.487-1.162V59.725c0-7.675-3.083-10.768-7.36-10.768-3.593,0-6.645,1.465-9.613,6.037-5.4,8.175-11.915,20.093-15.015,25.963-.475,1-.952,1.315-1.112,1.315-.182,0-.352-.653-.352-1.66V59.725c0-7.675-3.08-10.768-7.33-10.768-3.6,0-7.05,1.335-9.8,6.037-6.875,11.607-18.28,29.4-20.42,32.32a2.286,2.286,0,0,1-.985.98c-.282,0-.48-.323-.48-1.13V59.725c0-7.675-3.085-10.768-7.342-10.768-5.9,0-9.14,5.408-11.27,8.82-2.935,4.732-6.83,11.113-9.945,16.993-2.1,3.935-3.907,7.5-4.557,7.5-.335,0-.335-1.48-.335-4.25V56.163c10.3-11.45,16.645-25.473,16.645-40.815,0-8.83-3.912-13.713-9.963-13.713-11.255,0-19.9,17.64-19.9,38.515V57.125a44.732,44.732,0,0,1-16.165,6.045c-3.093-9.12-9.625-13.858-14.8-13.73-5.107.18-8.682,3.29-8.682,8.517,0,8.645,8.467,12.233,15.988,12.233h2.137a29.561,29.561,0,0,1,.3,5.232c0,8-4.72,15.978-13.545,15.978-9.14,0-14.5-8.808-14.5-18.92,0-7.683,2.288-14.035,6.007-18.43,1.465-1.643,2.628-3.113,2.628-4.138,0-.76-1.163-.955-2.12-.955-6.215,0-19.922,8.352-36.25,24.68-1.435-13.07-3.09-25.805-3.09-38.222A141.907,141.907,0,0,1,338.706,6.38a32.158,32.158,0,0,0,.5-4.4c0-1.313-.665-1.985-2.423-1.985C323.559,0,294.5,21.07,294.5,52.565c0,12.88,2.782,22.045,7.67,30.028a24.642,24.642,0,0,0-4.593-.32c-5.207,0-10.117,1.3-13.16,1.952V80.958c0-7-1.655-16.633-4.61-19.907a1.873,1.873,0,0,0-1.285-.483,10.666,10.666,0,0,0-4.745,1.615c-1.973.988-3.935,1.988-3.935,2.615a2.4,2.4,0,0,0,.492,1.46,24.215,24.215,0,0,1,5.38,12.593c-5.555-5.553-11.893-8.023-20.19-8.023-9.8,0-12.762,4.4-12.762,8.83,0,8.485,11.265,12.72,25.482,12.72a39.3,39.3,0,0,0,8.463-1.152c0,2.618.328,4.928.328,6.875,0,2.778.473,4.9,2.29,4.9,2.762,0,4.408-5.565,4.725-13.545,5.055-1.315,10.285-2.44,14.708-2.44A41.029,41.029,0,0,1,306.1,87.813ZM333.309,6.2c0,.995-2.265,5.553-5.212,13.725A103.087,103.087,0,0,0,322.056,55c0,8.658,2.173,20.093,3.947,31.673l-5.232,7.037c-8.3-10.135-13.555-21.542-13.555-41.14,0-27.74,16.845-46.98,25.477-46.98C333.169,5.585,333.309,5.733,333.309,6.2ZM565.737,84.04a21.465,21.465,0,0,1,1.46,7.36c0,2.618-.975,5.235-2.772,5.235-1.29,0-2.637-1.475-2.637-3.755C561.787,90.42,563.932,86.5,565.737,84.04ZM327.466,95.16c1.262,8.647,2.46,17.155,2.46,23.83,0,15.643-5.23,33.935-14.223,33.788-3.42,0-6.357-3.475-6.525-9.473C308.846,123.735,318.164,107.085,327.466,95.16ZM430.591,35.6c0-24.325,4.71-28.063,6.2-28.063,2.618,0,2.94,1.625,2.94,10.953,0,9.6-4.093,22.142-9.135,29.03ZM385.049,59.1a2.141,2.141,0,0,1,2.29-2.278c2.123,0,5.258,2.278,7.015,6.828C388.324,63.653,385.049,62.35,385.049,59.1Zm236.005,0a2.116,2.116,0,0,1,2.275-2.278c2.11,0,5.382,2.278,7.165,6.828-.63,0-1.607.195-2.29.195C624.316,63.848,621.054,61.988,621.054,59.1Z" transform="translate(184.146 0)" fill="#c00024"/>
            </g>
          </g>
        </g>
      </g>
    </g>
  </g>
</svg>
